<svg xmlns="http://www.w3.org/2000/svg" width="48" height="48" viewBox="0 0 48 48">
  <defs>
    <clipPath id="clip"><rect width="48" height="48" rx="10.5"/></clipPath>
    <linearGradient id="sky" x1="0" y1="0" x2="0" y2="1">
      <stop offset="0" stop-color="#FFFFFF"/><stop offset="1" stop-color="#E6F3E4"/>
    </linearGradient>
  </defs>
  <g clip-path="url(#clip)">
    <rect width="48" height="48" fill="url(#sky)"/>
    <path d="M0 36 Q24 31.5 48 36 L48 48 L0 48 Z" fill="#4CAF50"/>
    <path d="M0 36 Q12 33.8 24 37.2 L24 48 L0 48 Z" fill="#2E7D32"/>
    <g stroke="#4CAF50" stroke-width="2" stroke-linecap="round">
      <path d="M20.6 25 V28.4" fill="none"/>
      <path d="M24 25.8 V29.6" fill="none"/>
      <path d="M27.4 25 V28.4" fill="none"/>
    </g>
    <g stroke="#2E7D32" stroke-width="2.1" stroke-linecap="round" fill="none">
      <path d="M24 40.5 V33.6"/>
      <path d="M24 35 C23 31.8 20.5 30.2 17.7 30.4 C18.3 33.4 20.9 35.2 24 35"/>
      <path d="M24 35 C25 31.8 27.5 30.2 30.3 30.4 C29.7 33.4 27.1 35.2 24 35"/>
    </g>
    <g stroke="#263238" stroke-width="1.9" stroke-linecap="round">
      <path d="M16.6 13.6 L20.6 16.4" fill="none"/>
      <path d="M31.4 13.6 L27.4 16.4" fill="none"/>
    </g>
    <ellipse cx="16.6" cy="11.8" rx="5.4" ry="1.8" fill="#37474F"/>
    <ellipse cx="31.4" cy="11.8" rx="5.4" ry="1.8" fill="#37474F"/>
    <rect x="18.6" y="15.6" width="10.8" height="6" rx="3" fill="#263238"/>
  </g>
</svg>
