<svg xmlns="http://www.w3.org/2000/svg" width="16" height="16" viewBox="0 0 16 16">
  <defs>
    <clipPath id="clip"><rect width="16" height="16" rx="3.6"/></clipPath>
  </defs>
  <g clip-path="url(#clip)">
    <rect width="16" height="16" fill="#F0F8EF"/>
    <path d="M0 12.2 Q8 10.7 16 12.2 L16 16 L0 16 Z" fill="#4CAF50"/>
    <path d="M8 7.9 V9.8" stroke="#4CAF50" stroke-width="1.7" stroke-linecap="round" fill="none"/>
    <g stroke="#2E7D32" stroke-width="1.6" stroke-linecap="round" fill="none">
      <path d="M8 13 V11.1"/>
      <path d="M8 11.5 C7.5 10.4 6.5 9.9 5.6 10 C5.9 11.1 6.9 11.6 8 11.5"/>
      <path d="M8 11.5 C8.5 10.4 9.5 9.9 10.4 10 C10.1 11.1 9.1 11.6 8 11.5"/>
    </g>
    <rect x="3.6" y="3.9" width="8.8" height="2.7" rx="1.35" fill="#263238"/>
    <rect x="3" y="2.2" width="4.2" height="1.3" rx=".65" fill="#37474F"/>
    <rect x="8.8" y="2.2" width="4.2" height="1.3" rx=".65" fill="#37474F"/>
  </g>
</svg>
